<svg width="19" height="19" viewBox="0 0 19 19" fill="none" xmlns="http://www.w3.org/2000/svg">
<g clip-path="url(#clip0_1150_1940)">
<path d="M2.85025 2.92767H16.4486C16.649 2.92767 16.8412 3.00729 16.9828 3.14901C17.1245 3.29073 17.2041 3.48294 17.2041 3.68336V15.7743C17.2041 15.9747 17.1245 16.1669 16.9828 16.3086C16.8412 16.4503 16.649 16.5299 16.4486 16.5299H2.85025C2.64989 16.5299 2.45774 16.4503 2.31606 16.3086C2.17438 16.1669 2.09479 15.9747 2.09479 15.7743V3.68336C2.09479 3.48294 2.17438 3.29073 2.31606 3.14901C2.45774 3.00729 2.64989 2.92767 2.85025 2.92767ZM9.69478 9.48926L4.85073 5.37457L3.8724 6.52623L9.7046 11.4797L15.4318 6.52245L14.4436 5.3791L9.69553 9.48926H9.69478Z" fill="#2B2B2B"/>
</g>
<defs>
<clipPath id="clip0_1150_1940">
<rect width="18.1312" height="18.1364" fill="white" transform="translate(0.583862 0.660645)"/>
</clipPath>
</defs>
</svg>
