<svg width="19" height="20" viewBox="0 0 19 20" fill="none" xmlns="http://www.w3.org/2000/svg">
<g clip-path="url(#clip0_1150_1950)">
<path d="M2.09479 4.71169L7.38305 2.44464L11.9158 4.71169L16.6775 2.67059C16.735 2.64594 16.7977 2.63596 16.86 2.64153C16.9223 2.6471 16.9822 2.66806 17.0344 2.70251C17.0866 2.73697 17.1295 2.78385 17.1591 2.83895C17.1887 2.89405 17.2042 2.95565 17.2041 3.0182V15.2912L11.9158 17.5583L7.38305 15.2912L2.62135 17.3323C2.56387 17.357 2.50117 17.367 2.43888 17.3614C2.37659 17.3558 2.31665 17.3349 2.26446 17.3004C2.21226 17.2659 2.16943 17.2191 2.13982 17.164C2.11021 17.1089 2.09473 17.0473 2.09479 16.9847V4.71169ZM11.9158 15.8686V6.35605L11.8667 6.37721L7.38305 4.13435V13.6469L7.43215 13.6257L11.9158 15.8686Z" fill="#2B2B2B"/>
</g>
<defs>
<clipPath id="clip0_1150_1950">
<rect width="18.1312" height="18.1364" fill="white" transform="translate(0.583862 0.933289)"/>
</clipPath>
</defs>
</svg>
