<svg width="19" height="19" viewBox="0 0 19 19" fill="none" xmlns="http://www.w3.org/2000/svg">
<g clip-path="url(#clip0_1150_1962)">
<path d="M2.54648 3.13495H16.1449C16.3452 3.13495 16.5374 3.21438 16.6791 3.35578C16.8207 3.49718 16.9003 3.68895 16.9003 3.88892V15.9524C16.9003 16.1524 16.8207 16.3441 16.6791 16.4855C16.5374 16.6269 16.3452 16.7064 16.1449 16.7064H2.54648C2.34612 16.7064 2.15396 16.6269 2.01229 16.4855C1.87061 16.3441 1.79102 16.1524 1.79102 15.9524V3.88892C1.79102 3.68895 1.87061 3.49718 2.01229 3.35578C2.15396 3.21438 2.34612 3.13495 2.54648 3.13495ZM9.391 9.68165L4.54696 5.5763L3.56863 6.72535L9.40083 11.6676L15.128 6.72158L14.1399 5.58082L9.39176 9.68165H9.391Z" fill="#2B2B2B"/>
</g>
<defs>
<clipPath id="clip0_1150_1962">
<rect width="18.1312" height="18.0952" fill="white" transform="translate(0.28009 0.873047)"/>
</clipPath>
</defs>
</svg>
