<svg width="19" height="19" viewBox="0 0 19 19" fill="none" xmlns="http://www.w3.org/2000/svg">
<g clip-path="url(#clip0_1150_1982)">
<path d="M1.79102 4.43659L7.07928 2.17468L11.6121 4.43659L16.3738 2.40012C16.4313 2.37553 16.494 2.36556 16.5562 2.37112C16.6185 2.37668 16.6785 2.39759 16.7307 2.43197C16.7829 2.46635 16.8257 2.51313 16.8553 2.5681C16.8849 2.62308 16.9004 2.68453 16.9003 2.74694V14.9921L11.6121 17.254L7.07928 14.9921L2.31758 17.0286C2.26009 17.0532 2.1974 17.0632 2.1351 17.0576C2.07281 17.052 2.01288 17.0311 1.96068 16.9968C1.90849 16.9624 1.86566 16.9156 1.83605 16.8606C1.80643 16.8057 1.79096 16.7442 1.79102 16.6818V4.43659ZM11.6121 15.5682V6.07722L11.563 6.09833L7.07928 3.86056V13.3515L7.12838 13.3304L11.6121 15.5682Z" fill="#2B2B2B"/>
</g>
<defs>
<clipPath id="clip0_1150_1982">
<rect width="18.1312" height="18.0952" fill="white" transform="translate(0.28009 0.666748)"/>
</clipPath>
</defs>
</svg>
