<svg width="25" height="24" viewBox="0 0 25 24" fill="none" xmlns="http://www.w3.org/2000/svg">
<path d="M12.5 1.49927C6.70156 1.49927 2 6.20083 2 11.9993C2 17.7977 6.70156 22.4993 12.5 22.4993C18.2984 22.4993 23 17.7977 23 11.9993C23 6.20083 18.2984 1.49927 12.5 1.49927ZM12.5 20.718C7.68594 20.718 3.78125 16.8133 3.78125 11.9993C3.78125 7.18521 7.68594 3.28052 12.5 3.28052C17.3141 3.28052 21.2188 7.18521 21.2188 11.9993C21.2188 16.8133 17.3141 20.718 12.5 20.718ZM12.6312 8.23286C13.8734 8.23286 14.7172 9.02505 14.8109 10.1875C14.818 10.286 14.9 10.361 14.9984 10.361H16.3273C16.3883 10.361 16.4375 10.3118 16.4375 10.2508C16.4375 8.2188 14.8344 6.79614 12.6242 6.79614C10.0484 6.79614 8.5625 8.5352 8.5625 11.4086V12.6344C8.5625 15.4868 10.0484 17.2024 12.6242 17.2024C14.8273 17.2024 16.4375 15.8243 16.4375 13.8883C16.4375 13.8274 16.3883 13.7782 16.3273 13.7782H14.9961C14.8977 13.7782 14.818 13.8532 14.8086 13.9493C14.7102 15.0297 13.8687 15.7727 12.6289 15.7727C11.0984 15.7727 10.2359 14.65 10.2359 12.6415V11.4086C10.2383 9.36958 11.1031 8.23286 12.6312 8.23286Z" fill="#767676"/>
</svg>
