<svg width="1440" height="630" viewBox="0 0 1440 630" fill="none" xmlns="http://www.w3.org/2000/svg">
<rect x="0.311279" width="1439.38" height="630" fill="white"/>
<g clip-path="url(#clip0_1150_1719)">
<path d="M937.905 166.255C937.349 167.028 936.579 167.592 935.707 167.865C934.834 168.139 933.904 168.109 933.048 167.779C932.788 167.696 932.533 167.596 932.284 167.479C932.565 164.245 932.426 160.985 931.871 157.792C931.653 160.536 931.029 163.226 930.025 165.758C929.206 164.874 928.535 163.843 928.043 162.712C927.127 160.371 926.519 157.903 926.238 155.381C924.882 146.787 923.544 137.846 925.757 129.448C928.998 117.179 939.219 108.359 943.488 96.4559L945.592 94.4226C949.192 101.025 949.351 109.229 947.884 116.716C946.424 124.217 943.482 131.257 941.156 138.491C938.831 145.725 937.088 153.42 938.167 160.99C938.415 162.772 938.794 164.731 937.905 166.255Z" fill="#2F2E41"/>
<path d="M891.162 270.066L877.456 337.576L937.323 358.574L928.52 270.066H891.162Z" fill="#FFB6B6"/>
<path d="M1313.62 628.343H1340.75V494.406C1340.72 459.84 1327.95 426.701 1305.25 402.26C1282.56 377.818 1251.78 364.069 1219.69 364.03H967.56C935.462 364.069 904.69 377.818 881.993 402.26C859.297 426.701 846.53 459.84 846.494 494.406V628.343H873.623V536.841C873.659 501.954 886.544 468.507 909.452 443.838C932.359 419.169 963.418 405.293 995.814 405.253H1191.43C1223.83 405.293 1254.89 419.169 1277.79 443.838C1300.7 468.507 1313.59 501.954 1313.62 536.841V628.343Z" fill="#E6E6E6"/>
<path d="M983.962 558.274L955.049 548.847C953.169 540.527 952.221 531.994 952.225 523.431C952.239 521.497 952.763 519.607 953.738 517.982C954.713 516.358 956.097 515.066 957.729 514.257C959.361 513.449 961.172 513.158 962.952 513.418C964.732 513.678 966.406 514.478 967.779 515.726C983.286 530.049 1006 537.692 1020.66 554.015C1026.73 560.875 1031.28 569.117 1033.99 578.131C1036.69 587.144 1037.48 596.698 1036.29 606.085L1042.62 628.128C1028.46 627.027 1014.69 622.632 1002.25 615.247C989.816 607.861 979.015 597.66 970.594 585.347C965.933 578.389 962.104 570.827 959.198 562.838C971.46 561.34 983.962 558.274 983.962 558.274Z" fill="#F2F2F2"/>
<path d="M1059.32 594.372L1074.06 589.564C1074.08 589.48 1074.1 589.396 1074.12 589.311C1074.53 587.369 1074.4 585.34 1073.75 583.476C1073.1 581.612 1071.95 579.993 1070.46 578.821C1068.96 577.648 1067.18 576.972 1065.34 576.877C1063.49 576.782 1061.66 577.272 1060.07 578.286C1053.37 582.568 1045.94 586.256 1040.6 592.2C1037.51 595.699 1035.18 599.903 1033.8 604.5C1032.42 609.097 1032.02 613.97 1032.62 618.757L1029.4 630C1036.62 629.439 1043.65 627.197 1049.99 623.431C1056.33 619.664 1061.84 614.461 1066.13 608.181C1068.51 604.632 1070.46 600.775 1071.95 596.7C1065.69 595.936 1059.32 594.372 1059.32 594.372Z" fill="#F2F2F2"/>
<path d="M1178.69 265.255H1121.26C1120.45 265.256 1119.67 265.605 1119.1 266.224C1118.52 266.844 1118.2 267.683 1118.2 268.558V366.249H1181.75V268.558C1181.75 268.124 1181.68 267.695 1181.52 267.294C1181.37 266.893 1181.14 266.529 1180.86 266.222C1180.57 265.915 1180.23 265.672 1179.86 265.506C1179.49 265.34 1179.09 265.255 1178.69 265.255ZM1150.17 320.762C1148.37 320.753 1146.65 319.981 1145.38 318.613C1144.11 317.246 1143.39 315.393 1143.39 313.459V302.192C1143.39 300.257 1144.1 298.402 1145.38 297.034C1146.65 295.667 1148.37 294.899 1150.17 294.899C1151.96 294.899 1153.69 295.667 1154.96 297.034C1156.23 298.402 1156.95 300.257 1156.95 302.192V313.459C1156.94 315.393 1156.22 317.246 1154.95 318.613C1153.68 319.981 1151.96 320.753 1150.17 320.762Z" fill="#3F3D56"/>
<path d="M1273.78 112.797H1028.31C1026.2 112.8 1024.18 113.704 1022.68 115.31C1021.19 116.916 1020.35 119.093 1020.35 121.364V299.748C1020.35 302.019 1021.19 304.197 1022.68 305.803C1024.17 307.41 1026.2 308.313 1028.31 308.315H1273.78C1275.89 308.313 1277.91 307.41 1279.4 305.803C1280.89 304.197 1281.73 302.019 1281.73 299.748V121.364C1281.73 119.093 1280.89 116.916 1279.4 115.31C1277.91 113.704 1275.89 112.8 1273.78 112.797Z" fill="#3F3D56"/>
<path d="M1271.73 118.985H1030.36C1029.23 118.988 1028.15 119.472 1027.35 120.333C1026.55 121.194 1026.1 122.36 1026.1 123.576V297.538C1026.1 298.753 1026.55 299.917 1027.35 300.776C1028.15 301.635 1029.23 302.118 1030.36 302.12H1271.73C1272.86 302.118 1273.94 301.635 1274.74 300.776C1275.53 299.917 1275.98 298.753 1275.98 297.538V123.576C1275.98 122.36 1275.54 121.194 1274.74 120.333C1273.94 119.472 1272.86 118.988 1271.73 118.985Z" fill="white"/>
<path d="M1118 363.125V372.55C1118.01 373.038 1118.19 373.506 1118.51 373.852C1118.83 374.197 1119.26 374.391 1119.72 374.392H1180.24C1180.69 374.39 1181.13 374.195 1181.45 373.85C1181.77 373.505 1181.95 373.038 1181.95 372.55V363.125H1118Z" fill="#3F3D56"/>
<path d="M1224.71 377.672H1081.11C1080.72 377.672 1080.33 377.578 1079.97 377.396C1079.62 377.213 1079.31 376.948 1079.06 376.62C1078.81 376.291 1078.64 375.907 1078.54 375.495C1078.45 375.084 1078.44 374.655 1078.53 374.241L1080.75 362.845C1080.88 362.207 1081.21 361.635 1081.68 361.224C1082.15 360.814 1082.73 360.588 1083.34 360.586H1222.49C1223.09 360.588 1223.68 360.814 1224.15 361.224C1224.62 361.635 1224.94 362.207 1225.07 362.845L1227.3 374.241C1227.38 374.655 1227.37 375.084 1227.28 375.495C1227.19 375.907 1227.01 376.291 1226.77 376.62C1226.52 376.948 1226.21 377.213 1225.85 377.396C1225.5 377.578 1225.11 377.672 1224.71 377.672Z" fill="#3F3D56"/>
<path d="M1088.23 362.638H1084.91C1084.6 362.638 1084.36 362.903 1084.36 363.23V364.904C1084.36 365.231 1084.6 365.496 1084.91 365.496H1088.23C1088.54 365.496 1088.78 365.231 1088.78 364.904V363.23C1088.78 362.903 1088.54 362.638 1088.23 362.638Z" fill="#E6E6E6"/>
<path d="M1097.08 362.638H1093.75C1093.45 362.638 1093.2 362.903 1093.2 363.23V364.904C1093.2 365.231 1093.45 365.496 1093.75 365.496H1097.08C1097.38 365.496 1097.63 365.231 1097.63 364.904V363.23C1097.63 362.903 1097.38 362.638 1097.08 362.638Z" fill="#E6E6E6"/>
<path d="M1105.92 362.638H1102.6C1102.3 362.638 1102.05 362.903 1102.05 363.23V364.904C1102.05 365.231 1102.3 365.496 1102.6 365.496H1105.92C1106.23 365.496 1106.47 365.231 1106.47 364.904V363.23C1106.47 362.903 1106.23 362.638 1105.92 362.638Z" fill="#E6E6E6"/>
<path d="M1114.77 362.638H1111.45C1111.14 362.638 1110.9 362.903 1110.9 363.23V364.904C1110.9 365.231 1111.14 365.496 1111.45 365.496H1114.77C1115.07 365.496 1115.32 365.231 1115.32 364.904V363.23C1115.32 362.903 1115.07 362.638 1114.77 362.638Z" fill="#E6E6E6"/>
<path d="M1123.61 362.638H1120.29C1119.99 362.638 1119.74 362.903 1119.74 363.23V364.904C1119.74 365.231 1119.99 365.496 1120.29 365.496H1123.61C1123.92 365.496 1124.16 365.231 1124.16 364.904V363.23C1124.16 362.903 1123.92 362.638 1123.61 362.638Z" fill="#E6E6E6"/>
<path d="M1132.46 362.638H1129.14C1128.83 362.638 1128.59 362.903 1128.59 363.23V364.904C1128.59 365.231 1128.83 365.496 1129.14 365.496H1132.46C1132.76 365.496 1133.01 365.231 1133.01 364.904V363.23C1133.01 362.903 1132.76 362.638 1132.46 362.638Z" fill="#E6E6E6"/>
<path d="M1141.31 362.638H1137.98C1137.68 362.638 1137.43 362.903 1137.43 363.23V364.904C1137.43 365.231 1137.68 365.496 1137.98 365.496H1141.31C1141.61 365.496 1141.86 365.231 1141.86 364.904V363.23C1141.86 362.903 1141.61 362.638 1141.31 362.638Z" fill="#E6E6E6"/>
<path d="M1150.15 362.638H1146.83C1146.52 362.638 1146.28 362.903 1146.28 363.23V364.904C1146.28 365.231 1146.52 365.496 1146.83 365.496H1150.15C1150.46 365.496 1150.7 365.231 1150.7 364.904V363.23C1150.7 362.903 1150.46 362.638 1150.15 362.638Z" fill="#E6E6E6"/>
<path d="M1159 362.638H1155.67C1155.37 362.638 1155.12 362.903 1155.12 363.23V364.904C1155.12 365.231 1155.37 365.496 1155.67 365.496H1159C1159.3 365.496 1159.55 365.231 1159.55 364.904V363.23C1159.55 362.903 1159.3 362.638 1159 362.638Z" fill="#E6E6E6"/>
<path d="M1167.84 362.638H1164.52C1164.22 362.638 1163.97 362.903 1163.97 363.23V364.904C1163.97 365.231 1164.22 365.496 1164.52 365.496H1167.84C1168.15 365.496 1168.39 365.231 1168.39 364.904V363.23C1168.39 362.903 1168.15 362.638 1167.84 362.638Z" fill="#E6E6E6"/>
<path d="M1176.69 362.638H1173.37C1173.06 362.638 1172.82 362.903 1172.82 363.23V364.904C1172.82 365.231 1173.06 365.496 1173.37 365.496H1176.69C1176.99 365.496 1177.24 365.231 1177.24 364.904V363.23C1177.24 362.903 1176.99 362.638 1176.69 362.638Z" fill="#E6E6E6"/>
<path d="M1185.53 362.638H1182.21C1181.91 362.638 1181.66 362.903 1181.66 363.23V364.904C1181.66 365.231 1181.91 365.496 1182.21 365.496H1185.53C1185.84 365.496 1186.08 365.231 1186.08 364.904V363.23C1186.08 362.903 1185.84 362.638 1185.53 362.638Z" fill="#E6E6E6"/>
<path d="M1194.38 362.638H1191.06C1190.75 362.638 1190.51 362.903 1190.51 363.23V364.904C1190.51 365.231 1190.75 365.496 1191.06 365.496H1194.38C1194.68 365.496 1194.93 365.231 1194.93 364.904V363.23C1194.93 362.903 1194.68 362.638 1194.38 362.638Z" fill="#E6E6E6"/>
<path d="M1203.23 362.638H1199.9C1199.6 362.638 1199.35 362.903 1199.35 363.23V364.904C1199.35 365.231 1199.6 365.496 1199.9 365.496H1203.23C1203.53 365.496 1203.78 365.231 1203.78 364.904V363.23C1203.78 362.903 1203.53 362.638 1203.23 362.638Z" fill="#E6E6E6"/>
<path d="M1212.07 362.638H1208.75C1208.44 362.638 1208.2 362.903 1208.2 363.23V364.904C1208.2 365.231 1208.44 365.496 1208.75 365.496H1212.07C1212.38 365.496 1212.62 365.231 1212.62 364.904V363.23C1212.62 362.903 1212.38 362.638 1212.07 362.638Z" fill="#E6E6E6"/>
<path d="M1220.92 362.638H1217.59C1217.29 362.638 1217.04 362.903 1217.04 363.23V364.904C1217.04 365.231 1217.29 365.496 1217.59 365.496H1220.92C1221.22 365.496 1221.47 365.231 1221.47 364.904V363.23C1221.47 362.903 1221.22 362.638 1220.92 362.638Z" fill="#E6E6E6"/>
<path d="M1088.13 367.401H1084.8C1084.5 367.401 1084.25 367.666 1084.25 367.993V369.667C1084.25 369.994 1084.5 370.259 1084.8 370.259H1088.13C1088.43 370.259 1088.68 369.994 1088.68 369.667V367.993C1088.68 367.666 1088.43 367.401 1088.13 367.401Z" fill="#E6E6E6"/>
<path d="M1096.97 367.401H1093.65C1093.35 367.401 1093.1 367.666 1093.1 367.993V369.667C1093.1 369.994 1093.35 370.259 1093.65 370.259H1096.97C1097.28 370.259 1097.52 369.994 1097.52 369.667V367.993C1097.52 367.666 1097.28 367.401 1096.97 367.401Z" fill="#E6E6E6"/>
<path d="M1105.82 367.401H1102.49C1102.19 367.401 1101.95 367.666 1101.95 367.993V369.667C1101.95 369.994 1102.19 370.259 1102.49 370.259H1105.82C1106.12 370.259 1106.37 369.994 1106.37 369.667V367.993C1106.37 367.666 1106.12 367.401 1105.82 367.401Z" fill="#E6E6E6"/>
<path d="M1114.66 367.401H1111.34C1111.04 367.401 1110.79 367.666 1110.79 367.993V369.667C1110.79 369.994 1111.04 370.259 1111.34 370.259H1114.66C1114.97 370.259 1115.21 369.994 1115.21 369.667V367.993C1115.21 367.666 1114.97 367.401 1114.66 367.401Z" fill="#E6E6E6"/>
<path d="M1123.51 367.401H1120.19C1119.88 367.401 1119.64 367.666 1119.64 367.993V369.667C1119.64 369.994 1119.88 370.259 1120.19 370.259H1123.51C1123.81 370.259 1124.06 369.994 1124.06 369.667V367.993C1124.06 367.666 1123.81 367.401 1123.51 367.401Z" fill="#E6E6E6"/>
<path d="M1132.36 367.401H1129.03C1128.73 367.401 1128.48 367.666 1128.48 367.993V369.667C1128.48 369.994 1128.73 370.259 1129.03 370.259H1132.36C1132.66 370.259 1132.91 369.994 1132.91 369.667V367.993C1132.91 367.666 1132.66 367.401 1132.36 367.401Z" fill="#E6E6E6"/>
<path d="M1141.2 367.401H1137.88C1137.57 367.401 1137.33 367.666 1137.33 367.993V369.667C1137.33 369.994 1137.57 370.259 1137.88 370.259H1141.2C1141.51 370.259 1141.75 369.994 1141.75 369.667V367.993C1141.75 367.666 1141.51 367.401 1141.2 367.401Z" fill="#E6E6E6"/>
<path d="M1150.05 367.401H1146.72C1146.42 367.401 1146.17 367.666 1146.17 367.993V369.667C1146.17 369.994 1146.42 370.259 1146.72 370.259H1150.05C1150.35 370.259 1150.6 369.994 1150.6 369.667V367.993C1150.6 367.666 1150.35 367.401 1150.05 367.401Z" fill="#E6E6E6"/>
<path d="M1158.89 367.401H1155.57C1155.27 367.401 1155.02 367.666 1155.02 367.993V369.667C1155.02 369.994 1155.27 370.259 1155.57 370.259H1158.89C1159.2 370.259 1159.44 369.994 1159.44 369.667V367.993C1159.44 367.666 1159.2 367.401 1158.89 367.401Z" fill="#E6E6E6"/>
<path d="M1167.74 367.401H1164.41C1164.11 367.401 1163.87 367.666 1163.87 367.993V369.667C1163.87 369.994 1164.11 370.259 1164.41 370.259H1167.74C1168.04 370.259 1168.29 369.994 1168.29 369.667V367.993C1168.29 367.666 1168.04 367.401 1167.74 367.401Z" fill="#E6E6E6"/>
<path d="M1176.58 367.401H1173.26C1172.96 367.401 1172.71 367.666 1172.71 367.993V369.667C1172.71 369.994 1172.96 370.259 1173.26 370.259H1176.58C1176.89 370.259 1177.13 369.994 1177.13 369.667V367.993C1177.13 367.666 1176.89 367.401 1176.58 367.401Z" fill="#E6E6E6"/>
<path d="M1185.43 367.401H1182.11C1181.8 367.401 1181.56 367.666 1181.56 367.993V369.667C1181.56 369.994 1181.8 370.259 1182.11 370.259H1185.43C1185.73 370.259 1185.98 369.994 1185.98 369.667V367.993C1185.98 367.666 1185.73 367.401 1185.43 367.401Z" fill="#E6E6E6"/>
<path d="M1194.28 367.401H1190.95C1190.65 367.401 1190.4 367.666 1190.4 367.993V369.667C1190.4 369.994 1190.65 370.259 1190.95 370.259H1194.28C1194.58 370.259 1194.83 369.994 1194.83 369.667V367.993C1194.83 367.666 1194.58 367.401 1194.28 367.401Z" fill="#E6E6E6"/>
<path d="M1203.12 367.401H1199.8C1199.49 367.401 1199.25 367.666 1199.25 367.993V369.667C1199.25 369.994 1199.49 370.259 1199.8 370.259H1203.12C1203.43 370.259 1203.67 369.994 1203.67 369.667V367.993C1203.67 367.666 1203.43 367.401 1203.12 367.401Z" fill="#E6E6E6"/>
<path d="M1211.97 367.401H1208.64C1208.34 367.401 1208.09 367.666 1208.09 367.993V369.667C1208.09 369.994 1208.34 370.259 1208.64 370.259H1211.97C1212.27 370.259 1212.52 369.994 1212.52 369.667V367.993C1212.52 367.666 1212.27 367.401 1211.97 367.401Z" fill="#E6E6E6"/>
<path d="M1220.81 367.401H1217.49C1217.19 367.401 1216.94 367.666 1216.94 367.993V369.667C1216.94 369.994 1217.19 370.259 1217.49 370.259H1220.81C1221.12 370.259 1221.36 369.994 1221.36 369.667V367.993C1221.36 367.666 1221.12 367.401 1220.81 367.401Z" fill="#E6E6E6"/>
<path d="M1161.55 373.117H1127.26C1126.96 373.117 1126.71 373.382 1126.71 373.709V375.383C1126.71 375.709 1126.96 375.974 1127.26 375.974H1161.55C1161.85 375.974 1162.1 375.709 1162.1 375.383V373.709C1162.1 373.382 1161.85 373.117 1161.55 373.117Z" fill="#E6E6E6"/>
<path d="M1235.74 162.655V254.219C1235.74 260.351 1233.48 266.231 1229.45 270.567C1225.42 274.903 1219.96 277.339 1214.27 277.34H1107.85C1103.66 277.341 1099.56 276.023 1096.06 273.548C1092.56 271.073 1089.8 267.549 1088.14 263.409C1087.58 262.041 1087.15 260.615 1086.87 259.154C1089.13 260.096 1091.53 260.577 1093.96 260.572H1200.38C1205.62 260.564 1210.65 258.316 1214.36 254.321C1218.07 250.325 1220.16 244.908 1220.17 239.257V147.694C1220.17 145.081 1219.73 142.491 1218.85 140.055C1220.21 140.365 1221.53 140.824 1222.8 141.425C1226.65 143.22 1229.92 146.186 1232.22 149.958C1234.52 153.73 1235.74 158.144 1235.74 162.655Z" fill="#F2F2F2"/>
<path d="M838.728 526.953L828.173 533.991L797.077 492.828L812.655 482.443L838.728 526.953Z" fill="#FFB6B6"/>
<path d="M847.84 541.655L839.35 545.737L834.256 537.833L833.953 548.331L811.434 559.157C810.354 559.676 809.149 559.81 807.994 559.539C806.839 559.268 805.795 558.607 805.013 557.651C804.232 556.696 803.755 555.497 803.651 554.228C803.548 552.96 803.823 551.69 804.438 550.602L816.877 528.583L813.259 519.855L832.678 511.978L847.84 541.655Z" fill="#2F2E41"/>
<path d="M809.16 519.034L826.987 500.43C813.742 465.234 812.684 443.418 794.323 400.851C837.886 410.446 869.032 409.863 905.059 401.26C917.256 398.393 948.727 372.215 946.14 358.792C946.019 358.165 945.876 357.543 945.711 356.927C941.844 342.728 944.567 320.983 936.196 305.226C920.71 298.939 897.182 320.171 878.777 333.113C869.902 339.353 876.399 347.857 869.77 350.087L844.36 358.969L782.018 348.127C779.005 347.635 775.931 347.79 772.974 348.583C770.017 349.377 767.235 350.792 764.789 352.749C762.342 354.705 760.28 357.164 758.72 359.983C757.159 362.802 756.133 365.926 755.699 369.174C755.593 369.903 755.517 370.636 755.47 371.372C758.338 388.472 761.328 405.123 764.548 420.929C765.587 426.031 763.832 435.812 767.74 435.958C771.648 436.103 770.074 446.22 771.291 451.166C778.783 481.615 783.521 496.35 809.16 519.034Z" fill="#2F2E41"/>
<path d="M775.039 600.635L764.043 594.454L781.441 544.822L797.671 553.944L775.039 600.635Z" fill="#FFB6B6"/>
<path d="M773.207 563.582L790.839 576.655C812.45 542.998 826.482 498.023 836.931 447.7C877.619 428.586 913.221 406.718 938.031 377.386C942.105 372.468 944.242 366.036 943.987 359.451C943.733 352.866 941.109 346.647 936.669 342.11C936.235 341.672 935.786 341.252 935.323 340.851C924.577 331.632 900.71 336.937 885.456 329.232L858.205 369.848L861.337 379.308L851.858 384.278L843.854 388.474L834.691 393.278L804.655 409.024C801.932 410.49 799.505 412.522 797.515 415.003C795.525 417.483 794.01 420.364 793.059 423.478C792.108 426.592 791.738 429.879 791.972 433.147C792.206 436.416 793.039 439.603 794.422 442.523C794.725 443.185 795.055 443.831 795.41 444.463L784.255 504.309C784.255 504.309 787.324 514.728 782.494 513.753C777.665 512.778 780.297 525.545 780.297 525.545L773.207 563.582Z" fill="#2F2E41"/>
<path d="M768.38 627.989L760.137 623.356L762.728 614.148L754.897 620.411L733.035 608.123C731.987 607.534 731.141 606.6 730.621 605.457C730.101 604.314 729.934 603.021 730.144 601.769C730.355 600.516 730.931 599.368 731.79 598.494C732.649 597.619 733.745 597.063 734.918 596.906L758.67 593.734L762.776 585.261L780.568 596.763L768.38 627.989Z" fill="#2F2E41"/>
<path d="M1008.73 367.796L995.868 334.325L985.735 340.387L991.854 374.435C991.241 376.592 991.199 378.891 991.733 381.072C992.267 383.254 993.355 385.231 994.875 386.783C996.395 388.335 998.287 389.4 1000.34 389.857C1002.39 390.315 1004.52 390.147 1006.49 389.373C1008.45 388.598 1010.18 387.249 1011.48 385.475C1012.77 383.701 1013.58 381.574 1013.81 379.332C1014.04 377.09 1013.69 374.823 1012.79 372.785C1011.9 370.747 1010.49 369.019 1008.73 367.796Z" fill="#FFB6B6"/>
<path d="M792.917 103.123L812.486 132.585L821.08 124.208L807.956 92.5386C808.099 90.2881 807.656 88.0392 806.677 86.0448C805.699 84.0504 804.223 82.3895 802.416 81.2489C800.608 80.1083 798.542 79.5331 796.447 79.5881C794.353 79.643 792.315 80.326 790.562 81.5601C788.808 82.7942 787.409 84.5305 786.522 86.5739C785.635 88.6173 785.294 90.8867 785.539 93.1271C785.784 95.3674 786.604 97.4898 787.907 99.2557C789.211 101.022 790.946 102.361 792.917 103.123Z" fill="#FFB6B6"/>
<path d="M881.286 289.856C868.593 311.058 915.093 357.251 939.574 346.45C943.861 344.558 958.606 338.311 948.527 329.65C938.448 320.988 949.696 330.681 949.962 325.043C950.139 321.274 947.429 313.004 950.257 313.359C953.085 313.714 954.707 304.907 948.549 302.663C946.408 301.84 944.529 300.376 943.133 298.443C941.737 296.51 940.882 294.189 940.668 291.751C940.079 268.513 947.387 244.251 947.387 244.251L977.22 326.376C977.22 326.376 977 340.584 980.805 336.242C984.609 331.9 984.332 345.953 984.332 345.953C984.332 345.953 989.989 350.204 986.736 352.57C983.483 354.937 990.238 362.211 990.238 362.211L1006 360.999C1006 360.999 1005.75 348.389 1003.06 345.601C1000.37 342.812 1001.69 338.424 1001.69 338.424C1001.69 338.424 996.145 332.866 999.384 326.321C1002.62 319.776 975.796 202.698 975.796 202.698C974.721 197.065 972.221 191.862 968.571 187.664C964.922 183.466 960.266 180.436 955.118 178.91L938.094 173.862L935.071 160.945H911.099L906.924 169.433L868.644 165.795C868.644 165.795 830.767 128.682 832.616 125.785C834.465 122.887 828.594 116.102 828.594 116.102C828.594 116.102 823.579 114.335 826.409 113.391C829.239 112.448 823.89 110.266 823.89 110.266C823.89 110.266 818.937 108.864 821.273 107.019C823.609 105.173 813.476 103.96 813.476 103.96L800.329 115.512L802.986 120.364C802.986 120.364 801.366 126.971 803.481 124.559C805.595 122.147 805.993 129.147 805.993 129.147C805.993 129.147 807.073 136.812 813.476 139.121C819.88 141.431 824.735 163.37 824.735 163.37L878.777 211.868C870.546 222.042 872.505 232.681 879.797 243.564L881.286 289.856Z" fill="#FFB400"/>
<path d="M922.544 152.364C936.88 152.364 948.502 139.848 948.502 124.41C948.502 108.971 936.88 96.4561 922.544 96.4561C908.208 96.4561 896.586 108.971 896.586 124.41C896.586 139.848 908.208 152.364 922.544 152.364Z" fill="#FFB6B6"/>
<path d="M945.203 116.085C944.539 116.291 934.789 117.661 930.567 118.51C926.424 119.347 925.703 113.66 922.314 114.727C922.316 114.702 922.312 114.677 922.303 114.654C921.778 111.641 920.88 108.718 919.635 105.961C920.087 108.601 920.151 111.302 919.826 113.963C919.824 114.033 919.817 114.102 919.804 114.169C919.793 114.291 919.77 114.4 919.759 114.521C916.179 112.824 913.904 114.339 911.427 114.873C908.658 115.467 906.496 116.776 908.05 126.997C911.236 148.021 927.809 155.526 924.938 169.433C924.375 172.185 922.956 175.628 921.177 176.489C920.652 173.476 919.755 170.552 918.509 167.796C918.961 170.436 919.026 173.136 918.701 175.798C915.942 172.585 913.949 161.358 904.672 152.458C902.387 150.276 890.936 137.327 889.563 134.272C889.984 136.715 890.188 139.195 890.171 141.68C890.174 143.343 890.068 145.004 889.856 146.651C889.856 146.757 889.844 146.863 889.822 146.966C889.811 147.16 889.777 147.33 889.754 147.512C889.732 147.718 889.698 147.912 889.664 148.118C885.915 147.536 882.594 146.833 881.029 145.184C873.418 137.206 882.706 121.662 887.784 107.598C895.046 87.4592 916.134 84.7797 918.183 84.5615C927.212 83.5794 942.468 85.6648 947.455 96.6859C950.945 104.409 948.716 114.994 945.203 116.085Z" fill="#2F2E41"/>
<path d="M890.469 120.631L909.272 89.1312C904.766 86.314 899.635 84.8645 894.424 84.9367C891.828 84.9948 889.272 85.6415 886.922 86.8346C884.573 88.0278 882.484 89.7406 880.791 91.8615C876.951 97.0013 876.292 104.267 877.731 110.679C878.228 112.894 887.69 105.102 885.438 108.739C883.59 111.587 880.567 123.557 879.809 126.926C878.589 132.348 875.234 137.913 878.223 142.47C881.756 147.859 888.063 150.537 894.183 150.809C900.304 151.081 906.329 149.254 912.146 147.185L890.469 120.631Z" fill="#2F2E41"/>
<path d="M897.694 119.388C897.423 119.388 897.16 119.282 896.956 119.09C896.751 118.898 896.618 118.633 896.58 118.343C896.543 118.053 896.604 117.759 896.752 117.514C896.9 117.269 897.126 117.09 897.387 117.01C897.682 116.485 897.561 114.278 897.464 112.494C897.098 105.796 896.485 94.5873 906.59 87.0207C906.835 86.8371 907.138 86.766 907.432 86.8228C907.726 86.8797 907.986 87.0599 908.157 87.3238C908.327 87.5877 908.393 87.9138 908.341 88.2302C908.288 88.5466 908.12 88.8275 907.875 89.011C898.807 95.8021 899.351 105.761 899.712 112.351C899.917 116.119 900.066 118.84 897.944 119.358C897.862 119.378 897.778 119.389 897.694 119.388Z" fill="#FFB400"/>
<path d="M631.683 627.559C631.682 627.94 631.822 628.306 632.072 628.577C632.321 628.848 632.661 629 633.015 629.001H1438.35C1438.7 629.001 1439.05 628.849 1439.3 628.579C1439.55 628.308 1439.69 627.941 1439.69 627.559C1439.69 627.176 1439.55 626.809 1439.3 626.538C1439.05 626.268 1438.7 626.116 1438.35 626.116H633.023C632.848 626.115 632.674 626.152 632.511 626.224C632.349 626.295 632.202 626.401 632.077 626.534C631.953 626.667 631.854 626.826 631.786 627C631.719 627.174 631.684 627.361 631.683 627.55L631.683 627.559Z" fill="#CCCCCC"/>
<path d="M1129.92 194.593H1112.88C1112.43 194.593 1112 194.4 1111.68 194.056C1111.36 193.711 1111.18 193.245 1111.18 192.758C1111.18 192.272 1111.36 191.805 1111.68 191.461C1112 191.117 1112.43 190.924 1112.88 190.924H1129.92C1130.37 190.924 1130.81 191.117 1131.13 191.461C1131.45 191.805 1131.62 192.272 1131.62 192.758C1131.62 193.245 1131.45 193.711 1131.13 194.056C1130.81 194.4 1130.37 194.593 1129.92 194.593Z" fill="#FFB400"/>
<path d="M1160.59 194.593H1143.55C1143.33 194.593 1143.11 194.545 1142.9 194.453C1142.69 194.361 1142.5 194.226 1142.35 194.056C1142.19 193.885 1142.06 193.683 1141.98 193.46C1141.89 193.238 1141.85 192.999 1141.85 192.758C1141.85 192.517 1141.89 192.279 1141.98 192.056C1142.06 191.834 1142.19 191.631 1142.35 191.461C1142.5 191.291 1142.69 191.155 1142.9 191.063C1143.11 190.971 1143.33 190.924 1143.55 190.924H1160.59C1160.81 190.924 1161.03 190.971 1161.24 191.063C1161.45 191.155 1161.63 191.291 1161.79 191.461C1161.95 191.631 1162.08 191.834 1162.16 192.056C1162.25 192.279 1162.29 192.517 1162.29 192.758C1162.29 192.999 1162.25 193.238 1162.16 193.46C1162.08 193.683 1161.95 193.885 1161.79 194.056C1161.63 194.226 1161.45 194.361 1161.24 194.453C1161.03 194.545 1160.81 194.593 1160.59 194.593Z" fill="#FFB400"/>
<path d="M1175.92 209.27H1158.88C1158.66 209.27 1158.44 209.223 1158.23 209.131C1158.03 209.039 1157.84 208.903 1157.68 208.733C1157.52 208.563 1157.4 208.36 1157.31 208.138C1157.22 207.915 1157.18 207.677 1157.18 207.436C1157.18 207.195 1157.22 206.956 1157.31 206.734C1157.4 206.511 1157.52 206.309 1157.68 206.138C1157.84 205.968 1158.03 205.833 1158.23 205.741C1158.44 205.649 1158.66 205.601 1158.88 205.601H1175.92C1176.14 205.601 1176.37 205.649 1176.57 205.741C1176.78 205.833 1176.97 205.968 1177.13 206.138C1177.28 206.309 1177.41 206.511 1177.49 206.734C1177.58 206.956 1177.62 207.195 1177.62 207.436C1177.62 207.677 1177.58 207.915 1177.49 208.138C1177.41 208.36 1177.28 208.563 1177.13 208.733C1176.97 208.903 1176.78 209.039 1176.57 209.131C1176.37 209.223 1176.14 209.27 1175.92 209.27Z" fill="#FFB400"/>
<path d="M1145.35 209.27H1112.88C1112.43 209.27 1112 209.077 1111.68 208.733C1111.36 208.389 1111.18 207.922 1111.18 207.436C1111.18 206.949 1111.36 206.483 1111.68 206.138C1112 205.794 1112.43 205.601 1112.88 205.601H1145.35C1145.8 205.601 1146.23 205.794 1146.55 206.138C1146.87 206.483 1147.05 206.949 1147.05 207.436C1147.05 207.922 1146.87 208.389 1146.55 208.733C1146.23 209.077 1145.8 209.27 1145.35 209.27Z" fill="#FFB400"/>
<path d="M1206.68 194.593H1174.22C1173.77 194.593 1173.33 194.4 1173.01 194.056C1172.69 193.711 1172.51 193.245 1172.51 192.758C1172.51 192.272 1172.69 191.805 1173.01 191.461C1173.33 191.117 1173.77 190.924 1174.22 190.924H1206.68C1206.9 190.924 1207.13 190.971 1207.33 191.063C1207.54 191.155 1207.73 191.291 1207.89 191.461C1208.04 191.631 1208.17 191.834 1208.25 192.056C1208.34 192.279 1208.38 192.517 1208.38 192.758C1208.38 192.999 1208.34 193.238 1208.25 193.46C1208.17 193.683 1208.04 193.885 1207.89 194.056C1207.73 194.226 1207.54 194.361 1207.33 194.453C1207.13 194.545 1206.9 194.593 1206.68 194.593Z" fill="#FFB400"/>
<path d="M1141.58 166.799H1109.12C1108.9 166.8 1108.67 166.753 1108.47 166.661C1108.26 166.569 1108.07 166.434 1107.91 166.263C1107.75 166.093 1107.63 165.89 1107.54 165.668C1107.46 165.445 1107.41 165.206 1107.41 164.964C1107.41 164.723 1107.46 164.484 1107.54 164.261C1107.63 164.038 1107.75 163.836 1107.91 163.665C1108.07 163.495 1108.26 163.36 1108.47 163.268C1108.67 163.176 1108.9 163.129 1109.12 163.13H1141.58C1142.04 163.13 1142.47 163.323 1142.79 163.667C1143.11 164.011 1143.29 164.478 1143.29 164.964C1143.29 165.451 1143.11 165.918 1142.79 166.262C1142.47 166.606 1142.04 166.799 1141.58 166.799Z" fill="#FFB400"/>
<path d="M1144.25 177.518C1143.94 177.518 1143.63 177.411 1143.37 177.212C1143.11 177.013 1142.91 176.732 1142.81 176.408C1142.71 176.084 1142.7 175.734 1142.79 175.406C1142.88 175.077 1143.07 174.788 1143.32 174.578L1151.63 167.619C1151.96 167.34 1152.24 166.989 1152.44 166.588C1152.64 166.187 1152.76 165.746 1152.8 165.292C1152.83 164.838 1152.78 164.381 1152.64 163.95C1152.51 163.519 1152.29 163.124 1152 162.789L1145.02 154.653C1144.88 154.495 1144.78 154.309 1144.71 154.107C1144.64 153.904 1144.61 153.689 1144.62 153.473C1144.62 153.258 1144.67 153.046 1144.76 152.85C1144.84 152.654 1144.96 152.478 1145.11 152.331C1145.25 152.185 1145.42 152.071 1145.61 151.997C1145.8 151.922 1146 151.888 1146.2 151.896C1146.4 151.905 1146.6 151.956 1146.78 152.046C1146.96 152.136 1147.13 152.264 1147.26 152.423L1157.62 164.505C1157.77 164.672 1157.88 164.869 1157.95 165.084C1158.02 165.299 1158.04 165.528 1158.02 165.754C1158.01 165.981 1157.95 166.202 1157.85 166.402C1157.75 166.602 1157.61 166.777 1157.44 166.917L1145.19 177.172C1144.92 177.396 1144.59 177.518 1144.25 177.518Z" fill="#FFB400"/>
<path d="M1107.48 177.518C1107.8 177.518 1108.11 177.411 1108.37 177.212C1108.62 177.013 1108.82 176.732 1108.92 176.408C1109.03 176.084 1109.03 175.734 1108.94 175.406C1108.85 175.077 1108.67 174.788 1108.42 174.578L1100.1 167.619C1099.77 167.34 1099.49 166.989 1099.29 166.588C1099.09 166.187 1098.97 165.746 1098.93 165.292C1098.9 164.838 1098.95 164.381 1099.09 163.95C1099.23 163.519 1099.45 163.124 1099.73 162.789L1106.71 154.653C1106.85 154.495 1106.95 154.309 1107.02 154.107C1107.09 153.904 1107.12 153.689 1107.12 153.473C1107.11 153.258 1107.06 153.046 1106.98 152.85C1106.89 152.654 1106.77 152.478 1106.63 152.331C1106.48 152.185 1106.31 152.071 1106.12 151.997C1105.93 151.922 1105.73 151.888 1105.53 151.896C1105.33 151.905 1105.14 151.956 1104.95 152.046C1104.77 152.136 1104.61 152.264 1104.47 152.423L1094.11 164.505C1093.96 164.672 1093.85 164.869 1093.79 165.084C1093.72 165.299 1093.69 165.528 1093.71 165.754C1093.72 165.981 1093.79 166.202 1093.89 166.402C1093.99 166.602 1094.12 166.777 1094.29 166.917L1106.54 177.172C1106.81 177.396 1107.14 177.518 1107.48 177.518Z" fill="#FFB400"/>
<path d="M1158.37 240.734H1125.9C1125.45 240.734 1125.02 240.541 1124.7 240.196C1124.38 239.852 1124.2 239.386 1124.2 238.899C1124.2 238.413 1124.38 237.946 1124.7 237.602C1125.02 237.258 1125.45 237.064 1125.9 237.064H1158.37C1158.82 237.064 1159.25 237.258 1159.57 237.602C1159.89 237.946 1160.07 238.413 1160.07 238.899C1160.07 239.386 1159.89 239.852 1159.57 240.196C1159.25 240.541 1158.82 240.734 1158.37 240.734Z" fill="#FFB400"/>
<path d="M1164.09 249.81C1163.77 249.81 1163.46 249.703 1163.2 249.504C1162.94 249.305 1162.75 249.024 1162.64 248.7C1162.54 248.376 1162.53 248.026 1162.63 247.698C1162.72 247.369 1162.9 247.08 1163.15 246.87L1171.46 239.911C1171.8 239.632 1172.07 239.28 1172.28 238.88C1172.48 238.479 1172.6 238.038 1172.63 237.584C1172.67 237.13 1172.61 236.673 1172.48 236.242C1172.34 235.811 1172.12 235.416 1171.83 235.081L1164.85 226.945C1164.72 226.787 1164.61 226.601 1164.54 226.398C1164.47 226.196 1164.44 225.981 1164.45 225.765C1164.46 225.55 1164.5 225.338 1164.59 225.142C1164.67 224.946 1164.79 224.77 1164.94 224.623C1165.09 224.477 1165.26 224.363 1165.45 224.288C1165.63 224.214 1165.83 224.18 1166.03 224.188C1166.23 224.197 1166.43 224.248 1166.61 224.338C1166.8 224.428 1166.96 224.556 1167.09 224.715L1177.46 236.797C1177.6 236.964 1177.71 237.161 1177.78 237.376C1177.85 237.591 1177.88 237.82 1177.86 238.046C1177.84 238.273 1177.78 238.494 1177.68 238.694C1177.58 238.894 1177.44 239.069 1177.27 239.209L1165.02 249.464C1164.76 249.688 1164.43 249.81 1164.09 249.81Z" fill="#FFB400"/>
<path d="M1107.48 249.81C1107.8 249.81 1108.11 249.703 1108.37 249.504C1108.62 249.305 1108.82 249.024 1108.92 248.7C1109.03 248.376 1109.03 248.026 1108.94 247.698C1108.85 247.369 1108.67 247.08 1108.42 246.87L1100.1 239.911C1099.77 239.632 1099.49 239.28 1099.29 238.88C1099.09 238.479 1098.97 238.038 1098.93 237.584C1098.9 237.13 1098.95 236.673 1099.09 236.242C1099.23 235.811 1099.45 235.416 1099.73 235.081L1106.71 226.945C1106.99 226.625 1107.13 226.201 1107.12 225.765C1107.1 225.33 1106.92 224.919 1106.63 224.623C1106.33 224.328 1105.94 224.171 1105.53 224.188C1105.13 224.205 1104.75 224.395 1104.47 224.715L1094.11 236.797C1093.96 236.964 1093.85 237.161 1093.79 237.376C1093.72 237.591 1093.69 237.82 1093.71 238.046C1093.72 238.273 1093.79 238.494 1093.89 238.694C1093.99 238.894 1094.12 239.069 1094.29 239.209L1106.54 249.464C1106.81 249.688 1107.14 249.81 1107.48 249.81Z" fill="#FFB400"/>
<path d="M1110.38 244.669L1117.2 227.859C1117.38 227.415 1117.72 227.067 1118.14 226.891C1118.56 226.715 1119.03 226.726 1119.44 226.92C1119.85 227.114 1120.18 227.477 1120.34 227.928C1120.51 228.379 1120.5 228.883 1120.32 229.328L1113.5 246.139C1113.41 246.361 1113.28 246.562 1113.12 246.73C1112.96 246.898 1112.77 247.03 1112.56 247.119C1112.35 247.208 1112.13 247.251 1111.9 247.247C1111.68 247.242 1111.46 247.19 1111.25 247.093C1111.05 246.997 1110.86 246.857 1110.7 246.683C1110.55 246.508 1110.43 246.302 1110.35 246.077C1110.26 245.852 1110.22 245.612 1110.23 245.37C1110.24 245.128 1110.28 244.89 1110.38 244.669Z" fill="#FFB400"/>
</g>
<defs>
<clipPath id="clip0_1150_1719">
<rect width="808.006" height="550.407" fill="white" transform="translate(631.683 79.5933)"/>
</clipPath>
</defs>
</svg>
