<svg width="19" height="19" viewBox="0 0 19 19" fill="none" xmlns="http://www.w3.org/2000/svg">
<g clip-path="url(#clip0_1150_1972)">
<path d="M4.8129 1.58752H13.8785C14.0789 1.58752 14.271 1.66696 14.4127 1.80836C14.5544 1.94975 14.634 2.14153 14.634 2.34149V15.9129C14.634 16.1129 14.5544 16.3047 14.4127 16.4461C14.271 16.5875 14.0789 16.6669 13.8785 16.6669H4.8129C4.61254 16.6669 4.42038 16.5875 4.27871 16.4461C4.13703 16.3047 4.05743 16.1129 4.05743 15.9129V2.34149C4.05743 2.14153 4.13703 1.94975 4.27871 1.80836C4.42038 1.66696 4.61254 1.58752 4.8129 1.58752ZM9.3457 12.897C9.14533 12.897 8.95318 12.9765 8.8115 13.1179C8.66982 13.2593 8.59023 13.4511 8.59023 13.651C8.59023 13.851 8.66982 14.0428 8.8115 14.1842C8.95318 14.3255 9.14533 14.405 9.3457 14.405C9.54606 14.405 9.73821 14.3255 9.87989 14.1842C10.0216 14.0428 10.1012 13.851 10.1012 13.651C10.1012 13.4511 10.0216 13.2593 9.87989 13.1179C9.73821 12.9765 9.54606 12.897 9.3457 12.897Z" fill="#2B2B2B"/>
</g>
<defs>
<clipPath id="clip0_1150_1972">
<rect width="18.1312" height="18.0952" fill="white" transform="translate(0.28009 0.0795898)"/>
</clipPath>
</defs>
</svg>
